<?xml version="1.0" encoding="UTF-8" standalone="no"?>
<!-- Created with Inkscape (http://www.inkscape.org/) -->

<svg
   width="54mm"
   height="54mm"
   viewBox="0 0 53.999999 54"
   version="1.1"
   id="svg1"
   xml:space="preserve"
   inkscape:version="1.3 (0e150ed6c4, 2023-07-21)"
   sodipodi:docname="favicon.svg"
   xmlns:inkscape="http://www.inkscape.org/namespaces/inkscape"
   xmlns:sodipodi="http://sodipodi.sourceforge.net/DTD/sodipodi-0.dtd"
   xmlns="http://www.w3.org/2000/svg"
   xmlns:svg="http://www.w3.org/2000/svg"><sodipodi:namedview
     id="namedview1"
     pagecolor="#ffffff"
     bordercolor="#000000"
     borderopacity="0.25"
     inkscape:showpageshadow="2"
     inkscape:pageopacity="0.0"
     inkscape:pagecheckerboard="0"
     inkscape:deskcolor="#d1d1d1"
     inkscape:document-units="mm"
     inkscape:zoom="2.0211527"
     inkscape:cx="88.068556"
     inkscape:cy="118.49674"
     inkscape:window-width="2560"
     inkscape:window-height="1334"
     inkscape:window-x="-11"
     inkscape:window-y="-11"
     inkscape:window-maximized="1"
     inkscape:current-layer="layer1" /><defs
     id="defs1" /><g
     inkscape:label="图层 1"
     inkscape:groupmode="layer"
     id="layer1"
     transform="translate(-68.568398,-125.46011)"><rect
       style="vector-effect:non-scaling-stroke;fill:#ffffff;stroke-width:0.264583;-inkscape-stroke:hairline;fill-opacity:1"
       id="rect1"
       width="53.999996"
       height="53.999996"
       x="68.568398"
       y="125.46011"
       ry="0.54054058" /><path
       d="m 113.61079,163.94854 -12.69084,-20.49728 v -8.30221 h 1.28397 c 0.70619,0 1.28398,-0.56003 1.28398,-1.24452 0,-0.68449 -0.57779,-1.24452 -1.28398,-1.24452 H 89.364144 c -0.706188,0 -1.283979,0.56003 -1.283979,1.24452 0,0.68449 0.577791,1.24452 1.283979,1.24452 h 1.283978 v 8.30221 l -12.690841,20.49728 c -2.906927,4.69559 -0.662533,8.53742 4.986971,8.53742 h 25.679568 c 5.6495,0 7.89389,-3.84183 4.98697,-8.53742 z m -33.781804,1.58351 13.387092,-21.39506 v -8.98669 h 5.135913 v 8.98669 l 13.387099,21.69063 c 1.10206,2.31524 0.57113,4.12419 -2.91677,4.11401 l -25.536071,-0.0746 c 0,0 -5.490191,0.19705 -3.457263,-4.33501 z"
       fill="#444444"
       p-id="6455"
       id="path1"
       style="fill:#1976d2;fill-opacity:1;stroke-width:0.0395042"
       sodipodi:nodetypes="cccsssssscccsscccccccscc" /><path
       d="m 90.688953,166.46785 c 0.349054,0 0.61668,-0.28362 0.61668,-0.67555 l -0.01142,-2.47345 1.0705,-0.57744 2.909618,-1.7979 -0.198113,3.25779 v 1.15536 l -2.303861,1.22044 c -0.372391,0.1962 -0.489073,0.5556 -0.302878,0.83874 0.198112,0.33801 0.570504,0.38125 0.930979,0.18551 l 1.67576,-0.89361 V 168.68 c 0,0.40309 0.279543,0.68671 0.68669,0.68671 0.430485,0 0.686689,-0.28362 0.686689,-0.68671 v -1.97226 l 1.663842,0.89361 c 0.360976,0.1962 0.733362,0.1525 0.942899,-0.17435 0.186202,-0.2943 0.05808,-0.6537 -0.314296,-0.8499 l -2.292447,-1.22044 v -1.15536 l -0.198112,-3.25825 2.909628,1.7872 1.070499,0.57745 -0.0234,2.4846 c 0,0.3924 0.26811,0.67555 0.62859,0.67555 0.41857,0 0.64001,-0.29431 0.64001,-0.67555 v -1.79791 l 1.83862,0.99171 c 0.37239,0.1962 0.7562,0.11995 0.95432,-0.22874 0.20953,-0.32685 0.0928,-0.70857 -0.26812,-0.8936 l -1.83812,-0.9917 1.66384,-0.9043 c 0.36096,-0.1962 0.51241,-0.52305 0.30287,-0.8499 -0.18619,-0.29429 -0.55858,-0.38124 -0.93098,-0.17435 l -2.28101,1.25299 -1.070502,-0.57745 -3.119159,-1.46034 3.119159,-1.45988 1.070502,-0.58862 2.28101,1.253 c 0.36047,0.2069 0.7562,0.11995 0.9424,-0.16366 0.19761,-0.33753 0.0466,-0.66486 -0.31429,-0.86059 l -1.65243,-0.90429 1.82719,-0.98101 c 0.37241,-0.2069 0.48858,-0.5556 0.26763,-0.90429 -0.19812,-0.32685 -0.58193,-0.42496 -0.95431,-0.21806 l -1.83862,0.9917 -0.0119,-1.80859 c 0,-0.38123 -0.20954,-0.67601 -0.62811,-0.66485 -0.36097,0 -0.6286,0.27245 -0.6286,0.66485 l 0.0234,2.48367 -1.070501,0.57745 -2.909618,1.7872 0.198111,-3.25824 v -1.1549 l 2.292444,-1.21999 c 0.372389,-0.19619 0.500492,-0.55605 0.31429,-0.8392 -0.209524,-0.33755 -0.58192,-0.38124 -0.942891,-0.18504 l -1.663843,0.8936 v -1.9727 c 0,-0.40311 -0.256205,-0.67556 -0.686689,-0.67556 -0.407148,0 -0.68669,0.27245 -0.68669,0.67556 v 1.9727 l -1.675761,-0.8936 c -0.360474,-0.18551 -0.732865,-0.15251 -0.930979,0.18504 -0.186194,0.28362 -0.06951,0.64301 0.30288,0.8392 l 2.30386,1.22046 v 1.15488 l 0.198112,3.26942 -2.909617,-1.79836 -1.070501,-0.58814 0.01142,-2.47345 c 0,-0.3924 -0.267627,-0.66485 -0.61668,-0.66485 -0.418569,0 -0.640017,0.28362 -0.640017,0.66485 l -0.01141,1.7979 -1.8272,-0.98101 c -0.360474,-0.1962 -0.756202,-0.10879 -0.954315,0.21806 -0.220952,0.34869 -0.09285,0.70809 0.268122,0.90429 l 1.826704,0.98101 -1.652425,0.90429 c -0.360972,0.1962 -0.523829,0.51236 -0.314298,0.86105 0.174775,0.28315 0.581924,0.3701 0.942895,0.1632 l 2.280524,-1.24229 1.0705,0.57743 3.11915,1.46036 -3.11915,1.45988 -1.0705,0.57791 -2.281021,-1.25345 c -0.372391,-0.2069 -0.756202,-0.11948 -0.930978,0.16365 -0.197616,0.3487 -0.05809,0.66486 0.302878,0.86106 l 1.652425,0.9043 -1.8272,0.9917 c -0.360475,0.18503 -0.476661,0.56629 -0.267626,0.8936 0.209533,0.34869 0.593345,0.41378 0.954315,0.22874 l 1.8272,-0.99171 0.01141,1.79791 c 0,0.38124 0.220951,0.67555 0.640513,0.67555 z"
       p-id="5498"
       id="path1-4"
       style="fill:#1976d2;fill-opacity:1;stroke-width:0.0262756" /></g></svg>
