<?xml version="1.0" encoding="UTF-8" standalone="no"?>
<!-- Created with Inkscape (http://www.inkscape.org/) -->

<svg
   width="54mm"
   height="54mm"
   viewBox="0 0 53.999999 54"
   version="1.1"
   id="svg1"
   xml:space="preserve"
   inkscape:version="1.3.2 (091e20e, 2023-11-25)"
   sodipodi:docname="favicon.svg"
   xmlns:inkscape="http://www.inkscape.org/namespaces/inkscape"
   xmlns:sodipodi="http://sodipodi.sourceforge.net/DTD/sodipodi-0.dtd"
   xmlns="http://www.w3.org/2000/svg"
   xmlns:svg="http://www.w3.org/2000/svg"><sodipodi:namedview
     id="namedview1"
     pagecolor="#ffffff"
     bordercolor="#000000"
     borderopacity="0.25"
     inkscape:showpageshadow="2"
     inkscape:pageopacity="0.0"
     inkscape:pagecheckerboard="0"
     inkscape:deskcolor="#d1d1d1"
     inkscape:document-units="mm"
     inkscape:zoom="2.0211527"
     inkscape:cx="87.821173"
     inkscape:cy="118.74412"
     inkscape:window-width="1680"
     inkscape:window-height="941"
     inkscape:window-x="0"
     inkscape:window-y="25"
     inkscape:window-maximized="1"
     inkscape:current-layer="layer1" /><defs
     id="defs1" /><g
     inkscape:label="图层 1"
     inkscape:groupmode="layer"
     id="layer1"
     transform="translate(-68.568398,-125.46011)"><path
       d="m 118.74254,167.68766 -16.34413,-27.23469 v -11.03113 h 1.65359 c 0.90948,0 1.6536,-0.74412 1.6536,-1.65359 0,-0.90948 -0.74412,-1.6536 -1.6536,-1.6536 H 87.516064 c -0.909477,0 -1.653595,0.74412 -1.653595,1.6536 0,0.90947 0.744118,1.65359 1.653595,1.65359 h 1.653594 v 11.03113 l -16.344125,27.23469 c -3.743737,6.23902 -0.853255,11.34366 6.422559,11.34366 h 33.071888 c 7.27581,0 10.16629,-5.10464 6.42256,-11.34366 z m -43.506498,2.10401 17.240804,-28.42757 v -11.9406 h 6.614377 v 11.9406 l 17.240807,28.82029 c 1.41931,3.07626 0.73555,5.47981 -3.75641,5.46628 l -32.887081,-0.0991 c 0,0 -7.07064,0.26182 -4.452497,-5.75991 z"
       fill="#444444"
       p-id="6455"
       id="path1"
       style="fill:#1976d2;fill-opacity:1;stroke-width:0.0516764"
       sodipodi:nodetypes="cccsssssscccsscccccccscc" /><path
       d="m 89.222243,171.03506 c 0.449536,0 0.794202,-0.37684 0.794202,-0.8976 l -0.01471,-3.28646 1.378663,-0.76725 3.747203,-2.38887 -0.255143,4.32862 v 1.53513 l -2.967068,1.6216 c -0.479591,0.26069 -0.629862,0.73822 -0.390067,1.11443 0.255142,0.44911 0.734733,0.50656 1.198978,0.24648 l 2.158157,-1.18733 v 2.62053 c 0,0.53559 0.360014,0.91243 0.884366,0.91243 0.554408,0 0.884365,-0.37684 0.884365,-0.91243 v -2.62053 l 2.142808,1.18733 c 0.464889,0.2607 0.944473,0.20263 1.214329,-0.23165 0.239804,-0.39104 0.0748,-0.86857 -0.404772,-1.12926 l -2.952368,-1.6216 v -1.53513 l -0.255142,-4.32923 3.747216,2.37466 1.37866,0.76725 -0.0301,3.30128 c 0,0.52138 0.3453,0.8976 0.80955,0.8976 0.53906,0 0.82424,-0.39104 0.82424,-0.8976 v -2.38887 l 2.36791,1.31768 c 0.47958,0.26069 0.97388,0.15938 1.22903,-0.30393 0.26985,-0.43428 0.11958,-0.94147 -0.3453,-1.18733 l -2.36726,-1.31767 2.14281,-1.20153 c 0.46487,-0.2607 0.65991,-0.69498 0.39006,-1.12926 -0.23979,-0.39103 -0.71938,-0.50656 -1.19898,-0.23167 l -2.93764,1.66485 -1.37867,-0.76725 -4.017064,-1.94036 4.017064,-1.93974 1.37867,-0.78209 2.93764,1.66485 c 0.46424,0.27491 0.97388,0.15938 1.21369,-0.21745 0.25449,-0.44848 0.06,-0.8834 -0.40477,-1.14346 l -2.12811,-1.20154 2.35318,-1.30346 c 0.47961,-0.27491 0.62923,-0.73822 0.34467,-1.20153 -0.25515,-0.43428 -0.74945,-0.56464 -1.22903,-0.28973 l -2.3679,1.31766 -0.0153,-2.40306 c 0,-0.50655 -0.26985,-0.89822 -0.80892,-0.88339 -0.46488,0 -0.80955,0.362 -0.80955,0.88339 l 0.0301,3.30005 -1.37867,0.76725 -3.747203,2.37465 0.255141,-4.32922 v -1.53451 l 2.952365,-1.621 c 0.479587,-0.26068 0.644567,-0.73882 0.404764,-1.11504 -0.26984,-0.4485 -0.749437,-0.50656 -1.214319,-0.24587 l -2.14281,1.18733 v -2.62113 c 0,-0.5356 -0.329958,-0.89761 -0.884365,-0.89761 -0.524353,0 -0.884366,0.36201 -0.884366,0.89761 v 2.62113 l -2.158158,-1.18733 c -0.464243,-0.24648 -0.943834,-0.20263 -1.198978,0.24587 -0.239794,0.37684 -0.08952,0.85436 0.390069,1.11504 l 2.967067,1.62162 v 1.53449 l 0.255142,4.34407 -3.747202,-2.38948 -1.378664,-0.78146 0.01471,-3.28646 c 0,-0.52139 -0.344667,-0.88339 -0.794202,-0.88339 -0.539061,0 -0.824257,0.37684 -0.824257,0.88339 l -0.0147,2.38886 -2.353192,-1.30346 c -0.464243,-0.2607 -0.973888,-0.14455 -1.229031,0.28973 -0.284557,0.46331 -0.119578,0.94084 0.345306,1.20153 l 2.352553,1.30346 -2.128105,1.20154 c -0.464884,0.26068 -0.674623,0.68077 -0.404774,1.14407 0.225087,0.37622 0.74944,0.49175 1.214324,0.21684 l 2.937013,-1.65063 1.378663,0.76723 4.017052,1.94038 -4.017052,1.93974 -1.378663,0.76787 -2.937653,-1.66546 c -0.479591,-0.2749 -0.973889,-0.15875 -1.198977,0.21744 -0.254503,0.46332 -0.07481,0.8834 0.390067,1.1441 l 2.128105,1.20153 -2.353193,1.31767 c -0.464244,0.24586 -0.613876,0.75243 -0.344666,1.18733 0.26985,0.46331 0.764149,0.54979 1.229031,0.30393 l 2.353192,-1.31768 0.0147,2.38887 c 0,0.50656 0.284556,0.8976 0.824896,0.8976 z"
       p-id="5498"
       id="path1-4"
       style="fill:#1976d2;fill-opacity:1;stroke-width:0.0343717" /></g></svg>
