<svg xmlns="http://www.w3.org/2000/svg" width="200" height="200" class="icon" viewBox="0 0 1024 1024"><path fill="#9AD14B" d="m732.705 308.503-151.71-61.704-68.779 99.372-68.675-99.372-151.814 61.704 80.954-124.864 8.844-13.527-33.4-87.197 164.091 74.294 164.092-74.294-33.297 87.197 9.157 14.256z"/><path fill="#F95428" d="M774.43 220.89c89.07 74.814 145.674 186.984 145.674 312.472 0 225.276-182.614 407.89-407.889 407.89s-407.888-182.614-407.888-407.89c0-126.736 57.749-239.947 148.484-314.761 35.378-29.24 75.854-35.691 119.869-34.859l-80.954 124.864 151.814-61.808 68.675 99.371 68.675-99.37 151.814 61.807-80.538-124.136c45.057-.727 86.262 6.245 122.264 36.42"/><path fill="#E54728" d="M314.618 533.362c0-107.903 41.934-206.025 110.4-279.07l-133.187 54.21 80.953-124.863c-44.014-.832-84.49 5.619-119.869 34.858-90.735 74.919-148.588 188.129-148.588 314.865 0 225.276 182.614 407.89 407.889 407.89 36.314 0 71.59-4.787 105.094-13.736C443.02 881.11 314.618 722.22 314.618 533.362"/><path fill="#FFF" d="M696.286 848.852c-6.451 0-12.694-3.225-16.336-9.052-5.62-9.052-2.81-20.915 6.14-26.534C783.69 752.498 841.96 647.821 841.96 533.258c0-54.107-13.423-107.8-38.811-155.248-4.995-9.364-1.457-21.018 7.908-26.013 9.365-4.994 21.019-1.457 26.013 7.909 28.303 53.067 43.286 113.002 43.286 173.353 0 63.576-16.545 126.32-47.865 181.365-30.383 53.484-73.981 98.85-126.112 131.315a18.9 18.9 0 0 1-10.094 2.913"/><path fill="#90BC42" d="m527.616 217.873-15.4 128.298-68.675-99.372-151.814 61.704 80.954-124.864 8.844-13.527-33.4-87.197 164.091 74.294-43.598 37.668z"/><path fill="#FFF" d="M769.748 321.926a19.25 19.25 0 1 0 38.5 0 19.25 19.25 0 1 0-38.5 0"/><path fill="#333" d="M786.813 206.114c-39.54-33.193-84.283-40.165-121.326-40.997l28.822-75.335c2.81-7.283.937-15.503-4.787-20.914-5.722-5.307-14.046-6.764-21.122-3.538l-156.185 70.757L356.136 65.33c-7.076-3.225-15.4-1.873-21.123 3.538-5.722 5.306-7.596 13.63-4.786 20.914l28.51 74.607c-36.21.624-79.496 7.387-118.204 39.332C141.787 285.3 85.181 405.377 85.181 533.362c0 235.473 191.562 427.035 427.14 427.035 235.473 0 427.034-191.562 427.034-427.035 0-126.528-55.668-245.773-152.542-327.248m-282.505-31.32c4.994 2.29 10.821 2.29 15.92 0l121.43-55.043-16.648 43.494c-2.185 5.723-1.56 12.174 1.873 17.378l56.501 87.092-95.105-38.708c-8.324-3.434-17.897-.52-23.1 6.868l-52.859 76.479-52.859-76.48c-3.642-5.306-9.676-8.324-15.816-8.324-2.392 0-4.89.417-7.284 1.457l-95.104 38.708 56.5-87.092c3.33-5.203 4.059-11.55 1.874-17.378l-16.649-43.494zm7.908 747.104c-214.35 0-388.64-174.29-388.64-388.64 0-116.434 51.507-225.691 141.41-299.88 19.665-16.233 41.933-25.39 71.276-28.928L275.6 297.995c-4.579 7.076-4.057 16.232 1.353 22.683a19.12 19.12 0 0 0 22.06 5.514l137.454-55.98 59.935 86.676c3.538 5.202 9.469 8.324 15.816 8.324s12.278-3.122 15.816-8.324l59.935-86.676 137.455 55.98c7.804 3.122 16.753.937 22.06-5.514s5.93-15.713 1.352-22.683l-60.143-92.712c30.28 3.746 53.171 13.319 73.357 30.28 88.238 74.086 138.807 182.613 138.807 297.696 0 214.35-174.29 388.64-388.64 388.64"/></svg>