<?xml version="1.0" standalone="no"?><!DOCTYPE svg PUBLIC "-//W3C//DTD SVG 1.1//EN" "http://www.w3.org/Graphics/SVG/1.1/DTD/svg11.dtd"><svg t="1704788740065" class="icon" viewBox="0 0 1024 1024" version="1.1" xmlns="http://www.w3.org/2000/svg" p-id="13381" xmlns:xlink="http://www.w3.org/1999/xlink" width="200" height="200"><path d="M512 112.6c124.2 0 225.3 110.2 225.3 245.8 0 70.6-89.3 203.6-225.3 338C376 562 286.7 429 286.7 358.4c0-135.5 101.1-245.8 225.3-245.8m0-81.9c-169.7 0-307.2 146.7-307.2 327.7 0 149 208.1 357.9 281.8 427.2 7.3 6.9 16.4 10.3 25.4 10.3 9.1 0 18.2-3.4 25.4-10.3 73.6-69.3 281.8-278.3 281.8-427.2 0-181-137.5-327.7-307.2-327.7z" p-id="13382"></path><path d="M512 471c-67.8 0-122.9-55.1-122.9-122.9S444.2 225.3 512 225.3s122.9 55.1 122.9 122.9S579.8 471 512 471z m0-163.8c-22.6 0-41 18.4-41 41s18.4 41 41 41 41-18.4 41-41-18.4-41-41-41zM901.1 706.6c-22.5 0-41 18.4-41 41v163.8H163.8V747.5c0-22.5-18.4-41-41-41s-41 18.4-41 41v204.8c0 22.5 18.4 41 41 41H901c22.5 0 41-18.4 41-41V747.5c0.1-22.5-18.4-40.9-40.9-40.9z" p-id="13383"></path></svg>