<svg xmlns="http://www.w3.org/2000/svg" width="200" height="200" class="icon" viewBox="0 0 1024 1024"><path d="M190.871 177.531c-14.229-.008-28.415 4.468-40.052 12.658-13.384 9.314-23.369 23.41-27.602 39.166-1.867 6.731-2.592 13.74-2.457 20.715.004 138.71-.008 277.419.006 416.128.042 14.695 4.895 29.318 13.64 41.127 9.639 13.17 23.99 22.821 39.862 26.664 6.277 1.577 12.771 2.142 19.232 2.02 213.277-.002 426.553.007 639.83-.003 14.296-.023 28.533-4.594 40.18-12.884 12.911-9.1 22.615-22.66 26.973-37.852 2.048-7 2.898-14.316 2.757-21.6-.004-138.776.008-277.553-.006-416.329-.042-14.76-4.94-29.449-13.758-41.286-9.394-12.755-23.21-22.188-38.542-26.2-6.585-1.766-13.426-2.457-20.234-2.325-213.276 0-426.553-.003-639.829.002zM833 218.01c8.277-.052 16.46 3.6 21.999 9.742 5.1 5.547 7.935 13.084 7.76 20.618-.003 139.266.008 278.533-.004 417.8-.05 8.596-4.123 17.028-10.754 22.482-5.48 4.609-12.666 7.078-19.818 6.877-213.822-.003-427.644.006-641.466-.004-8.592-.014-17.037-4.05-22.516-10.657-4.682-5.511-7.176-12.777-6.96-19.998.004-139.167-.007-278.334.005-417.5.05-8.587 4.114-17.009 10.732-22.464 5.504-4.638 12.734-7.11 19.922-6.896z"/><path d="M478.94 697.004c-8.487.024-16.865 3.735-22.612 9.975-5.461 5.816-8.514 13.787-8.369 21.761.013 13.963-.026 27.927.02 41.89.18 8.824 4.38 17.441 11.164 23.077 5.732 4.848 13.255 7.475 20.756 7.303 21.857-.01 43.715.018 65.571-.014 8.851-.123 17.518-4.293 23.197-11.074 4.875-5.719 7.537-13.241 7.384-20.752-.013-13.93.025-27.86-.02-41.79-.18-8.824-4.38-17.44-11.164-23.077-5.732-4.848-13.255-7.476-20.756-7.303-21.724.003-43.448-.005-65.172.004zm58.62 38.476v27.05h-51.13v-27.05z"/><path d="M288.455 307.7c-5.978 3.739-13.003 5.132-19.833 6.42L263 315.224v28.007h16.9v45.06h-20.61v32.64h74.24v-32.64H315.1v-82.05h-24.213zm128.676 455.304c-8.488.024-16.865 3.735-22.614 9.975-5.46 5.816-8.515 13.787-8.367 21.761.024 7.027-.048 14.056.037 21.082.387 8.105 4.102 15.973 10.103 21.432 5.78 5.341 13.632 8.34 21.5 8.217 63.06-.004 126.12.009 189.18-.006 8.49-.048 16.855-3.792 22.587-10.05 5.411-5.812 8.44-13.745 8.293-21.684-.024-7.028.047-14.057-.038-21.084-.386-8.1-4.096-15.963-10.091-21.42-5.782-5.347-13.638-8.351-21.512-8.227-63.026.003-126.052-.005-189.078.004zm182.238 38.476v5.51H424.631v-5.51z"/><path d="M293.068 304.262c-2.364.067-4.612.99-6.57 2.275-5.047 2.896-10.798 4.153-16.446 5.287-2.851.773-5.427 2.59-7.023 5.082-1.522 2.22-2.153 4.97-2.029 7.644.04 3.261-.08 6.528.064 9.785.471 4.541 3.691 8.661 8.01 10.161 2.762 1.088 5.774.642 8.666.734.368.253.058 1.183.16 1.7v39.36c-3.207.031-6.418-.068-9.623.054-4.607.441-8.802 3.718-10.285 8.111-1.059 2.771-.605 5.78-.703 8.674.04 2.97-.084 5.946.07 8.911.468 4.61 3.79 8.771 8.194 10.225 2.716 1 5.648.573 8.476.665 16.614-.011 33.23.022 49.842-.017 4.86-.154 9.41-3.539 10.96-8.147 1.046-2.741.604-5.715.698-8.577-.037-2.986.077-5.979-.061-8.962-.457-4.66-3.829-8.87-8.29-10.303-2.76-.98-5.725-.533-8.589-.635-.481-.148-1.624.364-1.49-.4-.007-23.298.016-46.597-.011-69.895-.12-4.607-3.12-8.952-7.356-10.75-2.059-.934-4.343-1.085-6.573-1.004-3.363.015-6.728-.029-10.09.022m224.803.19c-7.782-.025-15.626 2.352-21.825 7.114-6.94 5.234-11.607 12.963-14.373 21.105-3.56 10.467-4.487 21.632-4.356 32.627.185 10.8 1.5 21.755 5.537 31.845 3.138 7.867 8.26 15.162 15.448 19.806 8.013 5.27 18.163 6.747 27.485 4.862 7.784-1.551 14.896-5.953 19.932-12.065 6.137-7.346 9.474-16.614 11.235-25.92 1.813-9.788 2.097-19.814 1.45-29.73-.76-10.32-2.836-20.765-7.85-29.916-3.817-6.991-9.634-13.03-16.924-16.386-4.91-2.302-10.348-3.37-15.759-3.343m.442 32.134c.958.106 1.424 1.161 1.916 1.86 2.064 3.832 2.745 8.215 3.296 12.48.774 7.217.795 14.508.28 21.744-.443 5.012-1.063 10.124-3.102 14.771-.546 1.08-1.096 2.348-2.187 2.97-.67.208-1.402-.029-1.787-.63-1.854-2.381-2.614-5.397-3.29-8.284-1.563-7.56-1.685-15.334-1.487-23.025.25-5.818.712-11.727 2.604-17.274.628-1.602 1.264-3.37 2.657-4.47.327-.193.735-.147 1.1-.142M739.068 304.262c-2.364.067-4.612.99-6.57 2.275-5.048 2.893-10.799 4.153-16.446 5.287-2.851.773-5.427 2.59-7.023 5.082-1.522 2.22-2.153 4.97-2.029 7.644.04 3.261-.081 6.528.064 9.785.471 4.541 3.691 8.661 8.01 10.161 2.762 1.088 5.774.642 8.666.734.368.253.058 1.183.16 1.7v39.36c-3.207.031-6.418-.068-9.623.054-4.607.441-8.802 3.718-10.285 8.111-1.059 2.771-.605 5.78-.703 8.674.04 2.97-.084 5.946.07 8.911.468 4.61 3.79 8.771 8.194 10.225 2.716 1 5.648.573 8.476.665 16.614-.011 33.23.022 49.842-.017 4.86-.154 9.41-3.539 10.96-8.147 1.046-2.741.604-5.715.698-8.577-.037-2.986.077-5.979-.061-8.962-.457-4.66-3.83-8.87-8.29-10.303-2.76-.98-5.725-.533-8.589-.635-.481-.148-1.624.364-1.49-.4-.007-23.298.016-46.597-.011-69.895-.12-4.607-3.12-8.952-7.356-10.75-2.059-.934-4.344-1.085-6.573-1.004-3.363.015-6.729-.029-10.09.022M294.854 490.46c-8.004-.02-16.068 2.371-22.512 7.177-7.237 5.317-12.211 13.203-15.204 21.574-3.87 10.797-4.952 22.382-4.836 33.787.169 11.199 1.559 22.558 5.768 33.01 3.252 8.104 8.512 15.615 15.873 20.472 6.794 4.563 15.134 6.511 23.26 6.062 8.128-.352 16.155-3.362 22.335-8.687 7.19-6.105 11.781-14.738 14.435-23.68 3.248-10.973 4.012-22.53 3.646-33.92-.429-10.902-2.15-21.952-6.766-31.922-3.602-7.82-9.313-14.858-16.9-19.092-5.787-3.286-12.467-4.82-19.1-4.78m.148 36.34c1.68 2.445 2.306 5.425 2.904 8.282 1.308 7.357 1.389 14.873 1.09 22.32-.311 5.423-.789 10.936-2.642 16.082-.365.901-.776 1.988-1.38 2.655-1.707-2.655-2.355-5.822-2.945-8.879-1.224-7.333-1.329-14.81-1.021-22.222.313-5.297.796-10.686 2.656-15.696.356-.889.753-1.778 1.338-2.541M516.068 492.262c-2.364.067-4.612.99-6.57 2.275-5.047 2.896-10.798 4.153-16.446 5.287-2.851.773-5.427 2.59-7.023 5.082-1.522 2.22-2.153 4.97-2.029 7.644.04 3.261-.08 6.528.064 9.785.471 4.541 3.691 8.661 8.01 10.161 2.762 1.088 5.774.642 8.666.734.368.253.058 1.183.16 1.7v39.36c-3.207.031-6.418-.068-9.623.054-4.607.441-8.802 3.718-10.285 8.111-1.059 2.771-.605 5.78-.703 8.674.04 2.97-.084 5.946.07 8.911.468 4.61 3.79 8.771 8.194 10.225 2.716 1 5.648.573 8.476.665 16.614-.011 33.23.022 49.842-.017 4.86-.154 9.41-3.539 10.96-8.147 1.046-2.741.604-5.715.698-8.577-.037-2.986.077-5.979-.061-8.962-.457-4.66-3.83-8.87-8.29-10.303-2.76-.98-5.725-.533-8.589-.635-.481-.148-1.624.364-1.49-.4-.007-23.298.016-46.597-.011-69.895-.12-4.607-3.12-8.952-7.356-10.75-2.059-.934-4.344-1.085-6.573-1.004-3.363.015-6.728-.029-10.09.022"/><path fill="#6176E7" d="M710.54 551.2c0-32.64 11.9-48.51 30.46-48.51 18.43 0 30.47 16 30.47 48.51 0 32.77-12.03 49.15-30.47 49.15-18.56.01-30.46-16.38-30.46-49.15m46.85 0c0-27.01-6.78-36.87-16.38-36.87s-16.38 9.86-16.38 36.87c0 27.27 6.79 37.51 16.38 37.51s16.38-10.24 16.38-37.51"/><path d="M740.854 490.46c-8.035-.021-16.13 2.393-22.585 7.235-7.194 5.319-12.14 13.175-15.121 21.516-3.859 10.765-4.944 22.316-4.837 33.687.16 11.166 1.53 22.49 5.69 32.925 3.224 8.114 8.446 15.649 15.779 20.545 6.82 4.643 15.232 6.627 23.424 6.174 8.127-.352 16.154-3.362 22.334-8.687 7.19-6.105 11.781-14.738 14.435-23.68 3.248-10.973 4.012-22.53 3.646-33.92-.427-10.843-2.132-21.828-6.692-31.756-3.575-7.826-9.246-14.886-16.804-19.158-5.824-3.354-12.573-4.92-19.27-4.88m.148 36.34c1.68 2.445 2.306 5.425 2.904 8.282 1.308 7.357 1.389 14.873 1.09 22.32-.311 5.423-.789 10.936-2.642 16.082-.365.901-.776 1.988-1.38 2.655-1.707-2.655-2.355-5.822-2.945-8.879-1.224-7.333-1.329-14.81-1.021-22.222.313-5.297.796-10.686 2.656-15.696.356-.889.753-1.778 1.338-2.541"/></svg>