<svg xmlns="http://www.w3.org/2000/svg" width="200" height="200" class="icon" viewBox="0 0 1024 1024"><path d="M509.377 56.407c-250.29 0-452.97 205.077-452.97 457.762 0 252.686 202.68 457.763 452.97 457.763 250.743 0 453.877-205.077 453.877-457.763S760.12 56.407 509.377 56.407m19.27 497.473V252.673h-83.543v350.76h1.304L662.35 729.318l41.885-73.07-175.475-102.31Zm-18.816 326.5a362.626 366.096 0 0 1-362.74-366.21c0-202.332 162.326-366.21 362.74-366.21 200.413 0 362.738 163.878 362.738 366.21 0 202.33-162.325 366.21-362.738 366.21" /></svg>
