<?xml version="1.0" standalone="no"?><!DOCTYPE svg PUBLIC "-//W3C//DTD SVG 1.1//EN" "http://www.w3.org/Graphics/SVG/1.1/DTD/svg11.dtd"><svg t="1683363114539" class="icon" viewBox="0 0 1024 1024" version="1.1" xmlns="http://www.w3.org/2000/svg" p-id="6423" xmlns:xlink="http://www.w3.org/1999/xlink" width="200" height="200"><path d="M755.2 563.2c120.32 0 217.6 97.28 217.6 217.6S875.52 998.4 755.2 998.4 537.6 901.12 537.6 780.8s97.28-217.6 217.6-217.6zM640 742.4c-15.36 0-25.6 10.24-25.6 25.6s10.24 25.6 25.6 25.6h204.8c15.36 0 25.6-10.24 25.6-25.6s-10.24-25.6-25.6-25.6h-204.8z m163.84-248.32V120.32H97.28v780.8h422.4c0 40.96 33.28 74.24 46.08 97.28H66.56C28.16 998.4 0 967.68 0 929.28V94.72C0 56.32 28.16 25.6 66.56 25.6h765.44c35.84 0 66.56 30.72 66.56 69.12v471.04c-20.48-23.04-61.44-58.88-94.72-71.68zM232.96 281.6c-7.68-17.92-2.56-33.28 17.92-43.52 20.48-10.24 35.84-7.68 48.64 12.8l97.28 151.04 99.84-151.04c12.8-17.92 28.16-23.04 46.08-15.36 17.92 7.68 25.6 23.04 17.92 46.08L460.8 432.64h81.92c7.68 7.68 12.8 15.36 12.8 25.6s-5.12 20.48-12.8 25.6h-104.96v43.52h104.96c7.68 7.68 12.8 15.36 12.8 25.6s-5.12 20.48-12.8 25.6h-104.96v110.08c2.56 30.72-10.24 48.64-38.4 48.64s-40.96-15.36-40.96-48.64v-110.08H250.88c-10.24-5.12-15.36-15.36-15.36-25.6s5.12-20.48 15.36-25.6h104.96v-43.52H250.88c-10.24-7.68-15.36-15.36-15.36-25.6s5.12-20.48 15.36-25.6H332.8L232.96 281.6z" p-id="6424"></path></svg>