<svg xmlns="http://www.w3.org/2000/svg" width="200" height="200" class="icon" viewBox="0 0 1024 1024"><path d="M887.01 937.107H243.246a103.718 105.934 0 0 1-103.72-105.933V210.182a103.718 105.934 0 0 1 103.72-105.933H815.48A103.718 105.934 0 0 1 919.2 210.182V719.76a31.65 32.327 0 0 1-6.902 22.173c-19.528 25.279-28.684 48.767-28.684 70.976 0 22.21 9.156 45.661 28.684 70.976a32.189 32.876 0 0 1-25.286 53.222m-32.189-248.396V210.182A39.341 40.182 0 0 0 815.482 170H243.243a39.341 40.182 0 0 0-39.341 40.182v493.141a121.059 123.645 0 0 1 57.224-14.611ZM261.127 871.355h569.626a151.745 154.987 0 0 1-11.516-58.446c0-19.726 3.898-39.196 11.516-58.446H261.127a57.224 58.446 0 1 0 0 116.892m89.412-588.114h357.649a35.765 36.53 0 0 1 0 73.057h-357.65a35.765 36.53 0 1 1 0-73.058m0 219.173h357.65a35.765 36.53 0 0 1 0 73.059h-357.65a35.765 36.53 0 0 1 0-73.059" style="stroke-width:.811847"/></svg>