<?xml version="1.0" standalone="no"?><!DOCTYPE svg PUBLIC "-//W3C//DTD SVG 1.1//EN" "http://www.w3.org/Graphics/SVG/1.1/DTD/svg11.dtd"><svg t="1691316009097" class="icon" viewBox="0 0 1024 1024" version="1.1" xmlns="http://www.w3.org/2000/svg" p-id="9072" xmlns:xlink="http://www.w3.org/1999/xlink" width="200" height="200"><path d="M881.777778 796.444444c15.928889 0 28.444444-12.515556 28.444444-28.444444v-625.777778c0-47.217778-38.115556-85.333333-85.333333-85.333333h-625.777778C151.893333 56.888889 113.777778 95.004444 113.777778 142.222222V853.333333c0 62.577778 51.2 113.777778 113.777778 113.777778h654.222222c15.928889 0 28.444444-12.515556 28.444444-28.444444s-12.515556-28.444444-28.444444-28.444445c-31.288889 0-56.888889-25.6-56.888889-56.888889s25.6-56.888889 56.888889-56.888889zM682.666667 113.777778v202.524444l-40.391111-27.306666a28.444444 28.444444 0 0 0-31.288889 0l-42.097778 27.875555V113.777778h113.777778zM199.111111 113.777778H512v256c0 10.24 5.688889 19.911111 14.791111 25.031111 9.102222 5.12 20.48 4.551111 29.013333-1.137778L625.777778 347.022222l68.835555 46.08c5.688889 3.413333 10.808889 5.12 16.497778 5.12 4.551111 0 9.102222-1.137778 13.653333-3.413333 9.102222-5.12 14.791111-14.791111 14.791112-25.031111V113.777778h85.333333c15.928889 0 28.444444 12.515556 28.444444 28.444444V739.555556H227.555556c-21.048889 0-39.822222 6.257778-56.888889 15.928888V142.222222c0-15.928889 12.515556-28.444444 28.444444-28.444444zM227.555556 910.222222c-31.288889 0-56.888889-25.6-56.888889-56.888889s25.6-56.888889 56.888889-56.888889h556.373333c-9.671111 17.066667-15.928889 35.84-15.928889 56.888889s6.257778 39.822222 15.928889 56.888889H227.555556z" p-id="9073"></path></svg>
