<svg xmlns="http://www.w3.org/2000/svg" width="200" height="200" class="icon" viewBox="0 0 1024 1024"><path d="M518.912 51.2c104.192 0 183.936 137.92 208.192 323.456 33.92 21.44 66.304 43.84 93.248 66.816 44.48-53.696 64.192-102.272 46.08-133.568-11.712-20.352-37.568-33.92-76.8-38.208a30.27 30.27 0 0 1-26.88-34.368 32.32 32.32 0 0 1 35.52-27.392c57.088 6.4 100.48 29.056 123.136 68.288 33.408 57.92 3.712 135.552-63.168 213.888a61.2 61.2 0 0 1-17.984 20.16 865.5 865.5 0 0 1-111.424 98.88 700 700 0 0 1-22.656 116.992c79.36 8.512 140.992-3.968 160.32-37.376 11.84-20.48 10.496-49.92-5.568-86.4a30.27 30.27 0 0 1 16.128-40.512c16.128-6.464 34.496 1.024 41.536 16.896 23.424 52.992 25.6 102.336 2.816 141.76-52.224 90.432-233.984 90.176-414.784 17.792-31.168 12.928-62.08 23.68-92.16 32 28.48 65.536 66.112 105.6 104.448 105.6 24.448 0 50.112-16.896 74.24-51.072a30.336 30.336 0 0 1 43.072-7.04c13.824 10.24 16.896 30.08 6.848 44.288-34.688 49.216-77.312 77.248-124.16 77.248-101.504 0-179.84-130.88-206.208-309.312-35.968-26.24-68.48-54.144-96.64-82.88-40.512 55.936-55.232 106.88-36.48 139.392 12.544 21.76 41.216 35.712 84.672 39.04a30.336 30.336 0 0 1 28.16 33.344 32.256 32.256 0 0 1-34.56 28.544c-62.08-4.736-109.248-27.648-133.248-69.184-53.376-92.416 31.488-235.072 187.2-350.464 4.736-34.56 11.52-67.584 20.096-98.432-75.328-10.176-132.48 2.048-152.448 36.544-13.312 23.04-9.984 57.28 11.776 99.456a30.336 30.336 0 0 1-13.504 41.536 32.32 32.32 0 0 1-42.432-14.4C104.64 373.248 99.328 317.824 124.48 274.24c38.208-66.112 134.016-83.84 250.624-60.288a24.6 24.6 0 0 1 4.48.768c40.32 8.64 83.072 22.016 126.72 40 40.384-18.304 78.208-31.872 114.24-40.704-28.096-61.888-64.448-99.392-101.568-99.392-26.176 0-53.696 19.392-79.04 58.24a30.336 30.336 0 0 1-42.88 8.64 32.32 32.32 0 0 1-8.32-44.032C424.448 82.688 469.248 51.2 518.912 51.2m140.224 606.272a1144 1144 0 0 1-73.28 43.136c20.032 6.144 39.68 11.328 58.752 15.424 5.76-18.432 10.56-37.952 14.528-58.56m-265.6 54.4 7.936-2.048c8.768-2.432 17.472-5.12 26.112-7.936a801 801 0 0 1-30.272-16.704l-12.672-7.552a665 665 0 0 0 8.96 34.24zm113.856-389.504c-23.872 11.712-48.96 25.088-75.264 40.32-21.952 12.672-42.88 25.984-62.528 39.68a872.7 872.7 0 0 0 .832 193.024c18.368 12.672 37.696 24.832 57.728 36.352 25.6 14.848 51.904 27.968 78.208 39.36 25.92-11.776 51.328-24.832 75.968-39.104a1113 1113 0 0 0 87.68-56.192c2.048-25.6 3.072-52.416 3.072-80.512 0-29.056-1.344-57.216-4.032-84.288-28.16-16.896-56.64-33.088-82.88-48.256-25.6-14.784-51.84-28.288-78.784-40.32zm-203.456 130.88L287.68 467.84a627 627 0 0 0-31.872 31.488c14.72 15.424 30.976 30.72 48.512 45.632a959 959 0 0 1-.384-91.712m215.04 10.304c16.96 0 30.72 14.208 30.72 31.744a31.296 31.296 0 0 1-30.72 31.68 31.296 31.296 0 0 1-30.912-31.68c0-17.536 13.824-31.744 30.848-31.744zm214.848-11.008a954 954 0 0 1 .576 73.728c15.744-13.248 30.528-26.56 44.096-39.744a572 572 0 0 0-44.672-33.92zm-91.456-180.096c-19.2 4.288-39.168 10.24-60.032 17.792a931 931 0 0 1 34.688 19.072l40.448 23.424a642 642 0 0 0-15.104-60.288M392.704 281.6l-4.544 16.768a516 516 0 0 0-5.184 21.76 1169 1169 0 0 1 47.68-27.392c-12.928-4.224-25.6-7.936-37.952-11.136"/></svg>
