<svg xmlns="http://www.w3.org/2000/svg" width="200" height="200" class="icon" viewBox="0 0 1024 1024"><path d="M175.347 120.05c-30.987 0-56.109 25.07-56.109 55.994v671.912c0 30.924 25.122 55.993 56.11 55.993h673.305c30.987 0 56.109-25.07 56.109-55.993V176.044c0-30.924-25.122-55.993-56.11-55.993zm0-55.992h673.306c61.976 0 112.217 50.138 112.217 111.986v671.912c0 61.848-50.241 111.986-112.217 111.986H175.347c-61.976 0-112.217-50.138-112.217-111.986V176.044c0-61.848 50.241-111.986 112.217-111.986zM479.27 693.977l-32.73-87.49H326.528l-32.73 87.489h-76.37l120.01-349.954h98.191l120.01 349.955h-76.37zm-98.19-251.53-32.73 98.424h76.369l-32.73-98.424h-10.91zm272.75 251.53c-52.163 0-98.148-38.02-98.148-87.488 0-49.981 41.359-76.553 109.059-76.553h76.37v-21.872c0-25.631-15.513-43.744-43.64-43.744-27.871 0-50.97 12.56-54.55 32.808H577.46c2.813-53.313 47.391-98.424 120.011-98.424 70.318 0 109.1 43.06 109.1 98.423v196.85H741.11v-43.743c-15.342 29.22-53.017 43.744-87.28 43.744zm15.172-51.69c32.474 0 59.324-21.274 59.324-51.006v-19.993l-57.79 3.589c-27.87 2.05-43.725 14.61-43.725 34.09 0 20.505 16.876 33.32 42.191 33.32z"/></svg>
