<svg xmlns="http://www.w3.org/2000/svg" width="200" height="200" class="icon" viewBox="0 0 1024 1024"><path d="M474.828 224.147V124.024h74.344v100.123h210.64A198.25 200.246 0 0 1 958.06 424.392v375.461a99.125 100.123 0 0 1-99.125 100.123H735.03a99.125 100.123 0 0 1-99.124-100.123v-25.03H388.094v25.03a99.125 100.123 0 0 1-99.124 100.123H165.064a99.125 100.123 0 0 1-99.125-100.123v-375.46a198.25 200.246 0 0 1 198.25-200.246Zm408.89 200.245A123.906 125.154 0 0 0 759.811 299.24H264.188a123.906 125.154 0 0 0-123.905 125.153V699.73h743.434zm0 275.338H710.248Zm-173.469 0v100.123a24.781 25.03 0 0 0 24.781 25.031h123.906a24.781 25.03 0 0 0 24.781-25.03V699.73Zm-569.966 0H313.75zm173.468 0H140.283v100.123a24.781 25.03 0 0 0 24.78 25.031H288.97a24.781 25.03 0 0 0 24.78-25.03zM288.97 436.908v-75.092h74.343v75.092h74.344V512h-74.344v75.092H288.97V512h-74.344v-75.092zm371.717 25.03a49.562 50.061 0 1 1 0-100.122 49.562 50.061 0 0 1 0 100.123zm99.125 125.154a49.562 50.061 0 1 1 0-100.123 49.562 50.061 0 0 1 0 100.123z" /></svg>
