<svg xmlns="http://www.w3.org/2000/svg" width="200" height="200" class="icon" viewBox="0 0 1024 1024"><path d="M253.888 165.184a170.7 170.7 0 0 1 94.656-28.672h326.912c33.728 0 66.624 9.984 94.72 28.672l59.392 39.616a170.69 170.69 0 0 1 169.28 158.528l21.76 305.536a102.4 102.4 0 0 1-56.32 98.88l-142.656 71.36a251.6 251.6 0 0 1-51.392 19.008 1065.2 1065.2 0 0 1-516.48 0 251.5 251.5 0 0 1-51.392-19.008l-142.72-71.36a102.4 102.4 0 0 1-56.32-98.88l21.824-305.536A170.69 170.69 0 0 1 194.432 204.8zm94.656 39.616a102.4 102.4 0 0 0-56.832 17.216l-76.544 51.072h-19.776a102.4 102.4 0 0 0-102.144 95.104l-21.76 305.536c-1.024 13.76 6.4 26.752 18.752 32.96l142.656 71.296c11.904 6.016 24.512 10.624 37.44 13.888 158.72 39.68 324.672 39.68 483.328 0 12.992-3.2 25.536-7.872 37.44-13.824l142.72-71.36a34.11 34.11 0 0 0 18.752-32.96l-21.824-305.536a102.4 102.4 0 0 0-102.144-95.104h-19.712l-76.608-51.072a102.4 102.4 0 0 0-56.832-17.216z"/><path d="M341.312 477.888h-204.8V409.6h204.8zm546.176 0H819.2V409.6h68.288zM819.2 614.4h-68.288v-68.288H819.2z"/><path d="M204.8 546.112v-204.8h68.288v204.8z"/></svg>