<?xml version="1.0" standalone="no"?><!DOCTYPE svg PUBLIC "-//W3C//DTD SVG 1.1//EN" "http://www.w3.org/Graphics/SVG/1.1/DTD/svg11.dtd"><svg t="1704789532169" class="icon" viewBox="0 0 1024 1024" version="1.1" xmlns="http://www.w3.org/2000/svg" p-id="15448" xmlns:xlink="http://www.w3.org/1999/xlink" width="200" height="200"><path d="M109.79 988.11q0-23.23 2.11-48.56l3.17-49.62q2.11-33.78 3.17-68.62 2.11-47.5 2.11-106.62 0-22.17-3.17-31.67l-6.33-14.78q-2.12-3.17-3.17-8.45-2.11-4.22-5.28-6.33l-14.78-5.28q-6.33-2.11-10.56-7.39 0-7.39 4.23-10.55 4.22-2.12 9.5-2.12 6.33 0 13.72-2.11l21.11-6.33q5.28-2.11 8.45-2.11 17.95-5.28 41.17 11.61l8.45 6.33q5.27 4.23 8.44 5.28 8.45 6.34 15.84 6.34 3.16-3.17 31.67-7.39 28.5-3.17 55.95-3.17 8.44-2.11 20.06-19 5.27-4.23 11.61-14.78 1.05-3.17 5.28-10.56l5.27-9.5q14.78-26.39 29.56-26.39 4.23 0 9.5 5.28 5.28 4.22 10.56 12.66l15.84 23.23 28.5 35.89q4.22 5.28 7.39 7.39 0 9.5-3.17 19l-5.28 19.01q-9.5 21.11-8.44 35.89l2.11 6.33q2.11 7.39 2.11 10.56l-4.22 63.34q-3.17 26.39-7.39 40.12-7.39 28.5-41.17 45.39-1.06 0-5.28 3.17l-6.34 4.22q-8.44 3.17-14.77 3.17-11.62 0-15.84-8.45-1.06-2.11-1.06-6.33-1.05-1.06-1.05-4.23v-4.22q-2.11-10.56-8.45-14.78-8.44-7.39-31.67-7.39l-22.17 3.17q-4.22 0-8.44-1.06-3.17 0-8.45-2.11l-15.83-3.17h-9.5q-6.34 1.06-10.56 3.17l3.17 48.56q0 40.12-26.39 68.62-23.23 25.34-60.18 38.01-12.66 0-21.11-12.67zM591.18 883.6q0-6.34 4.22-6.34h64.39q5.28-3.17 15.84-4.22 3.17-1.06 8.44-1.06l8.45-1.05q23.22-3.17 26.39-15.84 2.11-24.28 3.17-48.56l-1.06-109.79q-2.11-41.17-2.11-60.17 0-3.17 2.11-7.39 1.06-4.22 1.06-7.39l-4.22-21.11q-2.12-7.39-6.34-12.67t-9.5-5.28l-76.01 5.28-73.89 1.05q-1.06 1.06-8.45 4.23-7.39 2.11-11.61 2.11-2.11-1.06-7.39-2.11-3.17 0-4.22-1.06l-16.9-4.22-9.5-5.28-22.17-49.62q0-15.83 12.67-15.83l105.57 11.61q59.12 4.22 105.57 4.22 8.44 1.06 15.83-10.55 7.39-9.5 7.39-17.95V438.1q-1.05-3.16-2.11-8.44l-1.06-5.28q0-3.17-2.11-5.28-2.11-13.72-7.39-13.72-25.33 0-58.06 2.11-19 0-58.06 3.17L531 413.82q-31.67 2.11-59.12 2.11-14.77-9.5-19-43.28 0-2.11-3.16-10.56l-3.17-10.55q0-3.17 5.28-8.45 4.22-3.16 7.39-3.16l14.78 4.22 38 3.17h38q26.4 0 32.73-19.01 2.11-7.39 2.11-20.05v-26.4q0-16.89-21.11-14.78-23.23 1.06-26.39-4.22-5.28 0-10.56 1.06l-6.33 1.05q-7.39 0-23.23-20.05-19-20.06-19-38.01-2.11-2.11 1.05-3.17 0-1.05 2.12-2.11 2.11 0 3.16-1.05 11.61 0 24.28 1.05l44.34 3.17q11.61 1.06 22.17 1.06 7.39 0 8.45-16.9 1.05-6.33 1.05-14.77v-12.67q0-26.39-15.83-55.95l-31.67-50.68q0-3.16-4.23-8.44-3.16-4.22-3.16-7.39 0-2.11 6.33-4.22l19-8.45 7.39-1.05 8.45-3.17q5.28 0 26.39-7.39l15.83-7.39q7.39-4.22 9.51-7.39 15.83 1.06 35.89 10.56 4.22 2.11 8.44 5.28 5.28 1.05 9.5 4.22 1.06 1.05 4.23 2.11 3.16 1.05 4.22 2.11l7.39 4.22q3.17-2.11 12.67 4.23 10.55 5.27 10.55 12.66l-5.27 7.39q-1.06 3.17-4.23 7.39 0 1.06-1.05 2.11l-7.39 12.67q-9.5 20.06-8.45 34.84l3.17 79.17q0 6.34 2.11 9.51 2.11 5.27 7.39 5.27h48.56q7.39 2.12 12.67-5.27 0-2.12 2.11-6.34 1.06-3.17 2.11-4.22 3.17 0 8.45-8.45l7.39-9.5 1.05-3.16 4.23-5.28q17.94-25.34 30.61-25.34 4.22 0 20.06 10.56 14.78 8.44 32.72 23.22 16.89 14.78 29.56 26.39 12.67 12.67 12.67 17.95 0 27.45-47.5 35.89-15.84 3.17-40.12 3.17l-77.06-1.05q-43.29 0-57.01 21.11v12.67q-1.06 8.44 0 15.83 0 17.95 6.33 29.56 2.11 1.06 4.23 3.17l4.22 3.16q3.17 2.12 4.22 6.34 58.06 7.39 117.18 7.39h12.67q9.5 0 16.89-1.06 8.45 0 14.78-2.11 7.39-1.05 10.56-4.22 4.22 0 9.5-5.28l19-25.34q5.28-5.27 10.56-5.27 3.16 0 17.94 3.16 17.95 4.23 33.78 9.5 49.62 17.95 49.62 43.29v5.27q0 4.23-1.06 6.34-1.05 8.44-5.27 9.5-9.51 7.39-49.62 8.44l-29.56 1.06q-13.72 0-17.95 2.11-23.22 0-45.39-3.17l-23.22-4.22-59.12 9.5q-6.34 2.11-6.34 4.23 0 4.22 9.51 11.61l13.72 9.5 21.11 10.56q13.73 9.5 13.73 20.05 0 4.23-6.34 13.73l-5.28 7.39q-3.16 3.16-4.22 7.39-3.17 10.55-3.17 23.22v6.34q0 3.16 1.06 6.33 2.11 8.45 8.45 11.61h35.89q5.28 0 13.72-13.72l6.34-9.5q3.16-5.28 6.33-7.39l16.89-16.89q10.56-5.28 28.5 15.83l12.67 16.89q7.39 10.56 12.67 14.78l20.06 10.56q10.55 6.33 10.55 14.78 0 16.89-28.5 19-9.5 1.06-27.45 1.06l-24.28-1.06q-4.22 0-7.39-1.06h-32.72q-16.89 1.06-27.45 3.17-26.39 7.39-25.34 30.62l3.17 78.12-3.17 28.5 3.17 95.01q0 30.61-6.33 58.06-8.45 31.67-26.39 48.56-5.28 2.11-7.39 10.56-1.06 9.5-2.12 9.5-3.16 2.11-10.55 9.5l-12.67 14.78q-9.5 8.45-15.84 12.67-7.39 6.33-12.66 6.33h-12.67q-8.45 0-13.73-1.05-13.72-1.06-23.22-5.28-24.28-8.45-28.5-33.78l-2.11-14.78q0-6.34-4.23-11.62-4.22-6.33-14.78-9.5-4.22-2.11-9.5-3.16l-10.55-2.11q-24.28-4.23-24.28-14.78z m198.46-67.57q0-1.05 2.11-8.44 2.11-5.28 1.06-7.39h-3.17v15.83z m-581.67-19l3.16 6.33q13.73 1.06 45.4-2.11l42.22-4.22 16.9-16.89q0-76.01-3.17-87.62-4.22-10.56-23.23-10.56-4.22 0-9.5 1.06l-21.11 2.11q-6.33 1.06-11.61 1.06l-12.67-4.23q-4.22 0-11.61 2.11l-8.45 2.12-3.17 6.33-3.16 35.89v68.62z m354.7-39.06q0-7.39 1.06-14.78l1.05-9.5q0-40.11-3.16-65.45l-2.11-17.95-3.17-9.5q-2.11-19 8.44-19 6.34 0 11.62 3.17 5.27 2.11 9.5 7.39l8.44 9.5q4.22 5.28 7.39 7.39 21.12 13.72 35.89 31.67 19.01 22.17 19.01 46.45 0 12.66-20.06 34.83-25.34 24.28-47.51 24.28-3.16 3.17-10.55 0-4.23-3.16-8.45-9.5-4.22-6.33-6.33-12.66-2.11-5.28-1.06-6.34z m229.08 3.17q-1.05 0-1.05 6.33 0 6.34 1.05 6.34 2.11 0 3.17-3.17v-3.17q0-5.28-3.17-6.33z m1.06-10.56q-2.11 0-2.11 3.17 0 1.05 2.11 1.05t2.11-1.05q0-3.17-2.11-3.17z m-3.17-23.22q3.17-8.45 3.17-28.51h-3.17v28.51z m-620.73-71.79q1.05 4.22 3.16 4.22 4.23 0 4.23-6.33t-7.39-6.33v8.44z m-67.57-167.85q0-4.22 5.28-8.45 4.23-3.16 9.5-3.16 6.34 0 15.84 3.16l14.78 8.45 23.22-1.06q15.84 0 33.78 1.06L269.2 493q17.94 1.05 32.72 1.05 16.89 0 26.39-4.22 10.56-5.28 29.56-35.89l11.61-21.12q5.28-8.44 7.39-8.44 11.62 0 30.62 30.61 14.78 27.45 14.78 32.73 1.05 27.45-15.84 33.78-13.72 5.28-78.12 5.28l-9.5 3.17q-7.39 3.16-10.55 3.16-21.12 0-42.23 2.11l-47.51 4.23q-5.27 0-8.44 1.05-9.5 1.06-16.89 1.06-20.06 2.11-36.95 2.11h-20.06q-12.67-1.06-12.67-6.33l-22.17-47.51v-2.11z m-6.33-123.51q0-5.28 3.17-6.34h9.5l10.56 4.22q9.5 4.23 12.66 4.23l29.56 3.16q28.5 3.17 38.01 3.17l32.72-2.11q4.22-1.06 9.5 0l15.84 5.28q5.28 1.05 10.55 1.05 5.28 1.06 19.01-4.22 7.39 4.22 22.17 4.22h29.55q7.39-5.27 15.84-13.72l7.39-7.39 6.33-7.39q14.78-16.89 26.39-16.89 11.62 0 22.17 15.84 10.56 13.72 10.56 25.33 0 28.5-16.89 39.06h-26.39l-4.22 4.22h-47.51q-11.61 0-33.78 4.23-21.11 4.22-30.62 4.22l-7.39-2.11q-5.27 0-12.66 1.05-4.23 0-12.67 2.12-17.95 3.16-26.39 3.16-3.17 0-7.39-2.11-3.17-3.17-8.45-2.11l-48.56 4.22q-13.72 1.06-21.11-9.5l-8.45-22.17-8.44-11.61q-2.11-2.11-3.17-4.22-7.39-8.45-7.39-16.89zM0 242.8q0-4.22 6.33-5.27h6.34q4.22 0 6.33-1.06l6.34 1.06q4.22 0 11.61 2.11l19 3.16h46.45q27.45 1.06 38 6.34 2.12 0 14.78-3.17l13.73-3.17h120.34q2.11-2.11 15.84-3.16l31.67-1.06q43.28-3.17 50.67-24.28l13.72-39.06q1.06-4.22 4.23-5.28 2.11-1.05 4.22-1.05 4.22 0 8.45 4.22l8.44 8.45q2.11 10.55 7.39 20.05 2.11 4.23 5.28 8.45l7.39 8.44q14.78 17.95 14.78 30.62 0 25.33-26.39 20.06l-8.45-3.17q-8.44-3.17-10.56-3.17-20.05 0-28.5-2.11-10.56-2.11-14.78 2.11-2.11 2.11-4.22 9.5l-3.17 11.62q-4.22 6.33-14.78 8.44l-61.23-1.06q-12.66 0-27.44 2.12-6.34 0-12.67 1.05l-24.28 5.28q-8.45 2.11-13.73 2.11-12.66 2.11-22.17 2.11l-48.56-2.11-20.05 6.34H31.67q0-1.06-2.11-2.12l-4.22-4.22Q19 295.59 19 288.2q1.06-5.28-1.05-10.56l-6.34-10.56Q0 252.31 0 242.8z m802.31-33.78l-1.06-1.05q-2.11 0-2.11 2.11 0 4.22 2.11 4.22l1.06-5.28zM77.06 100.29q-1.05-6.34 2.12-10.56 2.11-5.28 9.5-5.28 31.67 9.5 73.89 9.5 3.17 0 8.45-2.11 6.33-1.05 11.61-1.05l24.28 4.22q13.73 2.11 24.28 2.11 5.28 0 11.61-1.05l10.56-2.12q7.39-2.11 11.61-2.11 6.34-1.05 11.62-1.05h39.06q25.33 0 38-39.06 0-3.17 3.17-7.39 1.05-5.28 2.11-6.34 2.11-9.5 4.22-13.72 5.28-11.61 13.72-11.61 3.17 0 13.73 10.55 9.5 10.56 21.11 26.4 11.61 13.72 19 25.33 8.45 13.73 8.45 15.84 4.22 51.73-49.62 51.73l-25.33-3.17q-15.84 0-35.9 6.33l-13.72 4.23q-8.45 2.11-12.67 2.11l-28.5-3.17q-5.28 0-12.67 1.06l-32.73 5.27h-15.83l-19 2.11q-3.17 0-5.28 1.06h-61.23q-5.28-5.28-11.61-13.72l-5.28-7.39q0-1.06-3.17-4.23l-2.11-3.16q-13.72-21.12-27.45-29.56z" p-id="15449"></path></svg>
