<svg xmlns="http://www.w3.org/2000/svg" width="200" height="200" class="icon" viewBox="0 0 1024 1024"><path fill="#231815" d="m140.451 514.378 371.848-371.832c101.652-101.654 267.98-101.654 369.646 0 101.652 101.652 101.652 267.993 0 369.646L510.112 884.026c-101.652 101.652-267.994 101.652-369.661 0-101.652-101.653-101.652-267.994 0-369.648m6.967 320.377 41.882 41.884 37.819-37.819-1.359-40.79-40.524-1.092zM773.72 252.272c-14.411-14.424-37.777-14.424-52.172-.014-14.41 14.41-14.41 37.776 0 52.2 14.395 14.409 37.762 14.409 52.172-.014 14.409-14.411 14.409-37.777 0-52.172m87.816-87.804c-14.41-14.41-37.776-14.41-52.185 0-14.41 14.395-14.41 37.763 0 52.172 14.41 14.41 37.776 14.41 52.185 0 14.41-14.409 14.41-37.777 0-52.172m-52.185 87.804c-14.41 14.395-14.41 37.761 0 52.171 14.41 14.424 37.776 14.424 52.171.014 14.41-14.424 14.41-37.79 0-52.2-14.395-14.409-37.761-14.409-52.171.015m-87.818-87.804c-14.395 14.395-14.395 37.763.014 52.172 14.395 14.41 37.762 14.41 52.172 0s14.409-37.777 0-52.172c-14.41-14.409-37.776-14.409-52.186 0M207.131 566.41l251.538 251.538L821.84 454.764 570.317 203.24zm77.739 316.367 41.884-41.882-37.819-37.819-43.046-.897 1.177 42.767zm-5.775-179.685-37.819 37.804 1.079 40.537 40.804 1.345 37.819-37.817zm-92.401-2.256-41.884 41.882 37.833 37.804 43.046.911-1.177-42.766z"/></svg>