<svg xmlns="http://www.w3.org/2000/svg" width="200" height="200" class="icon" viewBox="0 0 1024 1024"><path d="M922.92 338.02c-22.093-53.143-53.698-101.003-93.971-141.965-40.273-41.07-87.1-73.3-139.317-95.829-54.015-23.284-111.411-35.141-170.605-35.141S402.436 76.942 348.42 100.226c-52.112 22.53-98.939 54.76-139.211 95.829-40.273 40.962-71.879 88.822-93.865 141.965-22.832 55.083-34.46 113.615-34.46 173.98s11.628 118.897 34.46 173.98c22.092 53.25 53.698 101.003 93.97 142.073 40.273 41.069 87.1 73.3 139.318 95.72 54.014 23.285 111.41 35.142 170.605 35.142s116.59-11.857 170.605-35.141c52.218-22.53 99.044-54.76 139.317-95.72s71.879-88.824 93.865-142.074c22.832-55.083 34.46-113.615 34.46-173.98-.107-60.257-11.734-118.79-34.566-173.98M782.44 780.516c-70.292 71.683-163.84 111.243-263.307 111.243s-193.014-39.452-263.307-111.243S146.74 613.434 146.74 512s38.687-196.832 109.086-268.516c70.293-71.683 163.84-111.243 263.307-111.243 99.466 0 193.015 39.452 263.307 111.243S891.525 410.566 891.525 512s-38.793 196.832-109.086 268.516" /><path d="m449.103 352.077-98.053-92.249c-12.226-11.485-31.367-11.114-43.099.865-11.608 11.855-11.361 30.873.865 42.358l79.158 74.59-83.11 117.317a29.5 29.5 0 0 0 0 34.207l83.11 117.442-79.158 74.59c-5.805 5.433-9.139 12.966-9.386 20.993-.123 7.904 2.84 15.684 8.398 21.364 11.608 11.979 30.996 12.35 43.098.988l98.054-92.249c10.867-10.126 12.472-26.674 3.951-38.653l-85.95-121.393 86.074-121.393c8.52-12.102 6.915-28.65-3.952-38.777m284.28 142.881-83.11-117.441 79.158-74.59a29.68 29.68 0 0 0 8.521-28.774c-2.717-10.496-10.744-18.647-21.117-21.61-10.497-2.965-21.735-.248-29.638 7.162l-98.053 92.249c-10.868 10.126-12.473 26.674-3.952 38.653L671.142 512l-85.95 121.27c-8.521 12.102-6.916 28.65 3.952 38.653l98.053 92.249c7.286 6.915 17.536 9.756 27.415 7.78 9.88-2.1 18.03-8.892 21.982-18.154 4.692-11.361 1.852-24.328-7.163-32.725l-79.159-74.59h-.123l83.234-117.318c7.162-10.25 7.162-23.957 0-34.207"/></svg>
