<?xml version="1.0" standalone="no"?><!DOCTYPE svg PUBLIC "-//W3C//DTD SVG 1.1//EN" "http://www.w3.org/Graphics/SVG/1.1/DTD/svg11.dtd"><svg t="1690523155127" class="icon" viewBox="0 0 1024 1024" version="1.1" xmlns="http://www.w3.org/2000/svg" p-id="2545" xmlns:xlink="http://www.w3.org/1999/xlink" width="200" height="200"><path d="M188.8 696h-1.6L140.8 736 64 760l60.8-51.2 59.2-19.2V688l-44.8 11.2-64-9.6 62.4-16 41.6 8 65.6-36.8-81.6-22.4 6.4-20.8 100.8 28.8 36.8-20.8-62.4-17.6 4.8-20.8 84.8 24 36.8-20.8-134.4-38.4 6.4-19.2 153.6 43.2 88-48-27.2-16-59.2-35.2-155.2 40-6.4-20.8 136-35.2-36.8-20.8-84.8 22.4-4.8-20.8 64-17.6-36.8-20.8-104 27.2-4.8-20.8 83.2-20.8-64-38.4-41.6 6.4L80 323.2l64-8 44.8 11.2-59.2-20.8-59.2-52.8 75.2 25.6L192 320l1.6-1.6-33.6-32-22.4-59.2 44.8 44.8 14.4 40 65.6 36.8-22.4-81.6 20.8-4.8 27.2 102.4 35.2 20.8-16-64 20.8-4.8 20.8 84.8 36.8 20.8-35.2-134.4 20.8-6.4 40 156.8 88 51.2v-102.4l-113.6-113.6 14.4-14.4 99.2 99.2v-43.2l-62.4-62.4 14.4-14.4 48 48v-43.2l-76.8-75.2 14.4-16 62.4 62.4V139.2l-27.2-33.6-16-60.8L496 94.4l11.2 44.8h1.6L496 78.4 512 0l16 78.4-12.8 60.8h1.6l11.2-44.8 40-49.6-16 60.8-27.2 33.6v75.2l59.2-60.8 16 16-75.2 73.6v43.2l46.4-48 16 16-62.4 60.8v43.2l99.2-99.2 14.4 14.4-113.6 113.6v102.4l28.8-16 60.8-33.6 44.8-153.6 19.2 4.8-38.4 134.4 36.8-20.8 24-83.2 20.8 4.8-17.6 64 36.8-20.8 28.8-102.4 20.8 4.8-24 83.2L832 320l16-40 46.4-43.2-25.6 57.6-33.6 33.6h1.6l46.4-40 76.8-24-60.8 51.2-59.2 19.2v1.6l44.8-11.2 64 9.6-62.4 16-41.6-8-65.6 36.8 81.6 22.4-6.4 20.8-100.8-28.8-36.8 20.8 62.4 17.6-4.8 20.8-84.8-24-36.8 20.8 134.4 38.4-6.4 19.2-153.6-43.2-88 48 27.2 16 59.2 35.2 155.2-40 6.4 20.8-136 35.2 36.8 20.8 84.8-22.4 4.8 20.8-64 17.6 36.8 20.8 104-27.2 4.8 20.8-83.2 20.8 64 38.4 41.6-6.4 62.4 17.6-64 8-44.8-11.2 59.2 20.8 59.2 52.8-75.2-25.6L832 704l-1.6 1.6 33.6 32 22.4 59.2-44.8-44.8-14.4-40-65.6-36.8 22.4 81.6-20.8 4.8-27.2-102.4-35.2-20.8 16 64-20.8 4.8-20.8-84.8-36.8-20.8 35.2 134.4-20.8 6.4-40-156.8-88-51.2v102.4l113.6 113.6-14.4 14.4-99.2-99.2v43.2l62.4 62.4-14.4 14.4-48-48v43.2l76.8 75.2-14.4 16-62.4-62.4v75.2l27.2 33.6 16 60.8-40-49.6-11.2-44.8h-1.6l12.8 60.8-16 78.4-16-78.4 12.8-60.8h-1.6l-11.2 44.8-40 49.6 16-60.8 27.2-33.6v-75.2l-59.2 60.8-16-16 75.2-73.6v-43.2l-46.4 48-16-16 62.4-60.8v-43.2L400 764.8l-14.4-14.4 113.6-113.6v-102.4l-28.8 16-60.8 33.6-44.8 153.6-19.2-4.8 38.4-134.4-36.8 20.8-24 83.2-20.8-4.8 17.6-64-36.8 20.8-28.8 102.4-20.8-4.8 24-83.2L192 704l-16 40-46.4 43.2 25.6-57.6z" p-id="2546"></path></svg>