<svg xmlns="http://www.w3.org/2000/svg" width="200" height="200" class="icon" viewBox="0 0 1024 1024"><path d="M659.44 332.87H364.56c-11.47 0-20.76 9.29-20.76 20.76v26.02c0 11.47 9.29 20.76 20.76 20.76s20.76-9.29 20.76-20.76v-5.26h105.93v275.24h-10.92c-11.47 0-20.76 9.29-20.76 20.76 0 11.47 9.29 20.76 20.76 20.76h63.35c11.47 0 20.76-9.29 20.76-20.76 0-11.47-9.29-20.76-20.76-20.76h-10.92V374.38h105.93v5.26c0 11.47 9.29 20.76 20.76 20.76 11.47 0 20.76-9.29 20.76-20.76v-26.02c-.01-11.46-9.31-20.75-20.77-20.75z"/><path d="M826.474 65.5H197.529c-60.092 0-105.413 56.837-105.413 132.2v628.602c0 75.364 45.32 132.188 105.413 132.188h628.932c60.092 0 105.413-56.837 105.413-132.188V197.701c.013-75.364-45.308-132.201-105.4-132.201Zm51.816 760.802c0 43.371-22.764 77.333-51.816 77.333H197.529c-29.052 0-51.816-33.962-51.816-77.333V197.701c0-43.371 22.764-77.346 51.816-77.346h628.932c29.052 0 51.816 33.975 51.816 77.346v628.601z" style="stroke-width:1.30625"/></svg>