<svg xmlns="http://www.w3.org/2000/svg" width="200" height="200" class="icon" viewBox="0 0 1024 1024"><path d="M786.813 206.114c-39.54-33.193-84.283-40.165-121.326-40.997l28.822-75.335c2.81-7.283.937-15.503-4.787-20.914-5.722-5.307-14.046-6.764-21.122-3.538l-156.185 70.757L356.136 65.33c-7.076-3.225-15.4-1.873-21.123 3.538-5.722 5.306-7.596 13.63-4.786 20.914l28.51 74.607c-36.21.624-79.496 7.387-118.204 39.332C141.787 285.3 85.181 405.377 85.181 533.362c0 235.473 191.562 427.035 427.14 427.035 235.473 0 427.034-191.562 427.034-427.035 0-126.528-55.668-245.773-152.542-327.248m-282.505-31.32c4.994 2.29 10.821 2.29 15.92 0l121.43-55.043-16.648 43.494c-2.185 5.723-1.56 12.174 1.873 17.378l56.501 87.092-95.105-38.708c-8.324-3.434-17.897-.52-23.1 6.868l-52.859 76.479-52.859-76.48c-3.642-5.306-9.676-8.324-15.816-8.324-2.392 0-4.89.417-7.284 1.457l-95.104 38.708 56.5-87.092c3.33-5.203 4.059-11.55 1.874-17.378l-16.649-43.494zm7.908 747.104c-214.35 0-388.64-174.29-388.64-388.64 0-116.434 51.507-225.691 141.41-299.88 19.665-16.233 41.933-25.39 71.276-28.928L275.6 297.995c-4.579 7.076-4.057 16.232 1.353 22.683a19.12 19.12 0 0 0 22.06 5.514l137.454-55.98 59.935 86.676c3.538 5.202 9.469 8.324 15.816 8.324s12.278-3.122 15.816-8.324l59.935-86.676 137.455 55.98c7.804 3.122 16.753.937 22.06-5.514s5.93-15.713 1.352-22.683l-60.143-92.712c30.28 3.746 53.171 13.319 73.357 30.28 88.238 74.086 138.807 182.613 138.807 297.696 0 214.35-174.29 388.64-388.64 388.64"/><path d="M236.507 620.475H348.4v-25.6h-82.026l12.266 9.92v-21.653l-12.373 21.653 44.587-40.64q13.333-12.267 21.013-21.12 7.68-8.96 10.986-16.853 3.414-8 3.414-17.28v-.214q0-13.12-6.934-23.253-6.933-10.133-19.306-15.786-12.373-5.76-28.693-5.76-16.214 0-29.12 6.293-12.8 6.293-20.16 17.493-7.36 11.093-7.36 25.6v.853h29.866l.107-.96q.213-6.933 3.627-12.373 3.413-5.547 9.386-8.64 5.974-3.2 13.867-3.2 6.827 0 12.053 2.773 5.334 2.774 8.32 7.68 2.987 4.8 2.987 11.094v.213q0 5.333-1.92 10.24-1.813 4.907-6.933 11.093-5.12 6.187-15.147 15.467l-54.4 50.88zm190.826 2.667q17.6 0 31.04-6.827t20.907-18.987q7.573-12.16 7.573-28.266v-.214q0-14.506-6.506-25.813t-17.814-17.707q-11.306-6.506-26.026-6.506-7.787 0-14.507 2.026-6.613 2.027-11.84 5.76-5.12 3.627-8.32 8.854h-.64l3.733-43.307h72.64v-25.6h-98.24l-7.04 90.347h28.054q1.28-2.454 3.2-4.587t4.16-3.947q3.946-3.2 8.96-4.8 5.013-1.706 10.88-1.706 8.32 0 14.72 3.52 6.506 3.52 10.133 9.813 3.733 6.187 3.733 14.293v.214q0 8.213-3.733 14.506-3.627 6.294-10.133 9.92-6.4 3.52-14.827 3.52-7.36 0-13.227-2.666-5.866-2.774-9.706-7.467-3.734-4.693-4.907-10.453l-.213-.747h-29.76l.106 1.6q.96 12.8 8.32 23.04T398 617.168t29.333 5.974m92.907-24.427q7.253 0 12.267-5.013 5.013-5.014 5.013-12.267t-5.013-12.267-12.267-5.013-12.267 5.013q-5.013 5.014-5.013 12.267t5.013 12.267q5.014 5.013 12.267 5.013m0-75.947q7.253 0 12.267-5.013t5.013-12.267-5.013-12.266-12.267-5.013-12.267 5.013-5.013 12.266 5.013 12.267 12.267 5.013m97.92 100.374q19.52 0 33.493-9.707 14.08-9.707 21.653-27.52 7.574-17.92 7.574-42.347v-.213q0-24.533-7.574-42.347-7.573-17.813-21.653-27.413-13.973-9.706-33.493-9.706t-33.6 9.706q-14.08 9.6-21.654 27.413-7.466 17.814-7.466 42.347v.213q0 24.427 7.466 42.347 7.574 17.813 21.654 27.52t33.6 9.707m0-25.814q-9.6 0-16.427-6.4-6.72-6.4-10.24-18.453t-3.52-28.907v-.213q0-16.96 3.52-28.907 3.52-12.053 10.24-18.346 6.827-6.4 16.427-6.4t16.32 6.4q6.72 6.293 10.24 18.346 3.626 11.947 3.626 28.907v.213q0 16.854-3.626 28.907-3.52 12.053-10.24 18.453t-16.32 6.4m143.253 25.814q19.52 0 33.493-9.707 14.08-9.707 21.653-27.52 7.574-17.92 7.574-42.347v-.213q0-24.533-7.574-42.347-7.573-17.813-21.653-27.413-13.973-9.706-33.493-9.706t-33.6 9.706q-14.08 9.6-21.653 27.413-7.467 17.814-7.467 42.347v.213q0 24.427 7.467 42.347 7.573 17.813 21.653 27.52t33.6 9.707m0-25.814q-9.6 0-16.427-6.4-6.72-6.4-10.24-18.453t-3.52-28.907v-.213q0-16.96 3.52-28.907 3.52-12.053 10.24-18.346 6.827-6.4 16.427-6.4t16.32 6.4q6.72 6.293 10.24 18.346 3.626 11.947 3.626 28.907v.213q0 16.854-3.626 28.907-3.52 12.053-10.24 18.453t-16.32 6.4" /></svg>
