<svg xmlns="http://www.w3.org/2000/svg" width="200" height="200" class="icon" viewBox="0 0 1024 1024"><path  d="M784.984 108.475H239.036c-50.067 0-91.017 40.352-91.017 89.69v627.67c0 49.338 40.95 89.69 91.017 89.69h546.028c50.067 0 91.017-40.352 91.017-89.69v-627.67c-.08-49.338-41.03-89.69-91.097-89.69m45.508 717.36c0 24.748-20.395 44.846-45.508 44.846H239.036c-25.113 0-45.508-20.098-45.508-44.845V198.164c0-24.747 20.395-44.845 45.508-44.845h546.028c25.113 0 45.508 20.098 45.508 44.845v627.672z" /><path d="M329.974 556.845h455.01v44.845h-455.01zm-90.938 89.69h546.028v44.845H239.036Zm0 89.61h546.028v44.846H239.036Z" /><path d="M487.541 373.838q0 27.238-6.142 47.582-5.972 20.177-19.793 33.627-13.138 12.779-30.712 18.664-17.575 5.884-40.95 5.884-23.888 0-41.633-6.22-17.745-6.222-29.86-18.328-13.82-13.787-19.963-33.29-5.971-19.504-5.971-47.92V224.03H326.3v151.49q0 20.345 2.73 32.114 2.901 11.77 9.555 21.353 7.508 10.93 20.305 16.478 12.967 5.548 31.054 5.548 18.256 0 31.053-5.38 12.797-5.549 20.475-16.646 6.655-9.583 9.385-21.857 2.9-12.442 2.9-30.77V224.03h33.784zm280.508 4.371h-92.99v91.634h-28.324V378.21h-92.991v-26.901h92.99v-91.634h28.324v91.634h92.991z" /></svg>
