<?xml version="1.0" standalone="no"?><!DOCTYPE svg PUBLIC "-//W3C//DTD SVG 1.1//EN" "http://www.w3.org/Graphics/SVG/1.1/DTD/svg11.dtd"><svg t="1704778477853" class="icon" viewBox="0 0 1024 1024" version="1.1" xmlns="http://www.w3.org/2000/svg" p-id="5106" xmlns:xlink="http://www.w3.org/1999/xlink" width="200" height="200"><path d="M894.5 277.4L695.4 45.1c-7.2-8.3-17.6-13.1-28.6-13.1H158.1c-20.8 0-37.6 16.8-37.6 37.6v884.8c0 20.8 16.8 37.6 37.6 37.6h707.8c20.8 0 37.6-16.8 37.6-37.6V301.9c0-9-3.2-17.7-9-24.5z m-66.2 639.4H195.7V107.2h453.9l178.8 208.6v601z" p-id="5107"></path><path d="M540.8 379.3v73h-95.1c-20.8 0-37.6 16.8-37.6 37.6v73H313c-20.8 0-37.6 16.8-37.6 37.6v120.8c-13 5.9-22.1 18.8-22.1 34.1 0 20.8 16.8 37.6 37.6 37.6h442.3c20.8 0 37.6-16.8 37.6-37.6 0-15.2-9.1-28.2-22.1-34.1v-342c0-20.8-16.8-37.6-37.6-37.6H578.4c-20.8 0-37.6 16.8-37.6 37.6zM350.5 638.1H408v79.7h-57.5v-79.7z m132.8-37.6v-73h57.5v190.2h-57.5V600.5zM616 416.9h57.5v300.8H616V416.9z" p-id="5108"></path></svg>
